<svg xmlns="http://www.w3.org/2000/svg" viewBox="0 0 135.46667 135.46667" height="512" width="512"><title>Searchonymous2 Logo</title><g transform="translate(0 -161.533)"><ellipse ry="25.785" rx="67.733" cy="229.267" cx="67.733" paint-order="fill markers stroke"/><circle r="20.312" cy="229.267" cx="67.733" fill="#fff" paint-order="fill markers stroke"/><path fill="gray" paint-order="fill markers stroke" d="M0 228.444h135.467v1.645H0z"/><path fill="gray" fill-opacity=".05" paint-order="fill markers stroke" d="M0 171.092h135.467v1.645H0z"/><path fill="gray" fill-opacity=".7" paint-order="fill markers stroke" d="M0 247.561h135.467v1.645H0z"/><path fill="gray" fill-opacity=".4" paint-order="fill markers stroke" d="M0 266.679h135.467v1.645H0z"/><path fill="gray" fill-opacity=".25" paint-order="fill markers stroke" d="M0 276.237h135.467v1.645H0z"/><path fill="gray" fill-opacity=".55" paint-order="fill markers stroke" d="M0 257.12h135.467v1.645H0z"/><path fill="gray" fill-opacity=".85" paint-order="fill markers stroke" d="M0 238.003h135.467v1.645H0z"/><path fill="gray" fill-opacity=".4" paint-order="fill markers stroke" d="M0 190.209h135.467v1.645H0z"/><path fill="gray" fill-opacity=".7" paint-order="fill markers stroke" d="M0 209.327h135.467v1.645H0z"/><path fill="gray" fill-opacity=".25" paint-order="fill markers stroke" d="M0 180.651h135.467v1.645H0z"/><path fill="gray" fill-opacity=".55" paint-order="fill markers stroke" d="M0 199.768h135.467v1.645H0z"/><path fill="gray" fill-opacity=".85" paint-order="fill markers stroke" d="M0 218.885h135.467v1.645H0z"/><path fill="gray" fill-opacity=".01" paint-order="fill markers stroke" d="M0 295.355h135.467V297H0z"/><path fill="gray" fill-opacity=".05" paint-order="fill markers stroke" d="M0 285.796h135.467v1.645H0z"/><path fill="gray" fill-opacity=".01" paint-order="fill markers stroke" d="M0 161.533h135.467v1.645H0z"/></g></svg>